<svg id="Layer_1" data-name="Layer 1" xmlns="http://www.w3.org/2000/svg" viewBox="0 0 50.01 42.87"><defs><style>.cls-1{fill:#1c744c;}</style></defs><path class="cls-1" d="M9.6,23.25l-.12-.12L9.34,23s-.12-.1-.41-.4c-.11-.11-.45-.48-1.29-1.54a20.82,20.82,0,0,1-1.59-2.28,13.72,13.72,0,0,1-1.13-2.57,8.31,8.31,0,0,1-.45-2.59c0-3,.76-5.2,2.34-6.74s3.89-2.32,7-2.32A7.16,7.16,0,0,1,16.07,5a10.22,10.22,0,0,1,2.42,1.17c.92.61,1.72,1.18,2.36,1.69a21,21,0,0,1,1.79,1.6l2.83,2.83L28.3,9.42a22.69,22.69,0,0,1,1.79-1.6c.65-.52,1.45-1.09,2.37-1.69A10.31,10.31,0,0,1,34.87,5a6.86,6.86,0,0,1,2.25-.4c3.11,0,5.4.76,7,2.32s2.34,3.74,2.34,6.74-1.75,6.25-5.19,9.7L25.46,38.55M37.12.57a11.14,11.14,0,0,0-3.53.6,14.22,14.22,0,0,0-3.35,1.62c-1,.68-1.92,1.32-2.66,1.91a27.35,27.35,0,0,0-2.12,1.9,27.35,27.35,0,0,0-2.12-1.9c-.74-.6-1.63-1.23-2.66-1.91a14.22,14.22,0,0,0-3.35-1.62A11.14,11.14,0,0,0,13.8.57Q7.55.57,4,4T.47,13.63a12.13,12.13,0,0,0,.66,3.85,17,17,0,0,0,1.49,3.38,24.23,24.23,0,0,0,1.9,2.72c.71.88,1.22,1.49,1.55,1.83s.58.58.77.73l17.41,16.8a1.67,1.67,0,0,0,1.23.5,1.71,1.71,0,0,0,1.23-.5L44.09,26.2q6.39-6.39,6.39-12.56T46.94,4C44.55,1.72,41.29.57,37.12.57Z" transform="translate(-0.47 -0.57)"/></svg>