<svg id="Layer_1" data-name="Layer 1" xmlns="http://www.w3.org/2000/svg" viewBox="0 0 50.01 42.87"><defs><style>.cls-1{fill:#1c744c;}</style></defs><path class="cls-1" d="M37.12.57a11.14,11.14,0,0,0-3.53.6,14.22,14.22,0,0,0-3.35,1.62c-1,.68-1.92,1.32-2.66,1.91a27.35,27.35,0,0,0-2.12,1.9,27.35,27.35,0,0,0-2.12-1.9c-.74-.6-1.63-1.23-2.66-1.91a14.22,14.22,0,0,0-3.35-1.62A11.14,11.14,0,0,0,13.8.57Q7.55.57,4,4T.47,13.63a12.13,12.13,0,0,0,.66,3.85,17,17,0,0,0,1.49,3.38,24.23,24.23,0,0,0,1.9,2.72c.71.88,1.22,1.49,1.55,1.83s.58.58.77.73l17.41,16.8a1.67,1.67,0,0,0,1.23.5,1.71,1.71,0,0,0,1.23-.5L44.09,26.2q6.39-6.39,6.39-12.56T46.94,4C44.55,1.72,41.29.57,37.12.57Z" transform="translate(-0.47 -0.57)"/></svg>